<svg xmlns="http://www.w3.org/2000/svg" xmlns:xlink="http://www.w3.org/1999/xlink" width="16" height="16" version="1.1" viewBox="0 0 16 16"><title>Icons / UI / CrossSmall</title><desc>Created with Sketch.</desc><g id="Icons-/-UI-/-CrossSmall" fill="none" fill-rule="evenodd" stroke="none" stroke-width="1"><path id="Combined-Shape" fill="#000" fill-rule="nonzero" d="M8.5,7.5 L12.5,7.5 C12.7761424,7.5 13,7.72385763 13,8 C13,8.27614237 12.7761424,8.5 12.5,8.5 L8.5,8.5 L8.5,12.5 C8.5,12.7761424 8.27614237,13 8,13 C7.72385763,13 7.5,12.7761424 7.5,12.5 L7.5,8.5 L3.5,8.5 C3.22385763,8.5 3,8.27614237 3,8 C3,7.72385763 3.22385763,7.5 3.5,7.5 L7.5,7.5 L7.5,3.5 C7.5,3.22385763 7.72385763,3 8,3 C8.27614237,3 8.5,3.22385763 8.5,3.5 L8.5,7.5 Z" transform="translate(8.000000, 8.000000) rotate(-45.000000) translate(-8.000000, -8.000000)"/></g></svg>