<svg xmlns="http://www.w3.org/2000/svg" xmlns:xlink="http://www.w3.org/1999/xlink" width="16" height="16" version="1.1" viewBox="0 0 16 16"><title>Icons / UI / Plus</title><desc>Created with Sketch.</desc><g id="Icons-/-UI-/-Plus" fill="none" fill-rule="evenodd" stroke="none" stroke-width="1"><path id="Combined-Shape" fill="#000" fill-rule="nonzero" d="M8.5,7.5 L13,7.5 C13.2761424,7.5 13.5,7.72385763 13.5,8 C13.5,8.27614237 13.2761424,8.5 13,8.5 L8.5,8.5 L8.5,13 C8.5,13.2761424 8.27614237,13.5 8,13.5 C7.72385763,13.5 7.5,13.2761424 7.5,13 L7.5,8.5 L3,8.5 C2.72385763,8.5 2.5,8.27614237 2.5,8 C2.5,7.72385763 2.72385763,7.5 3,7.5 L7.5,7.5 L7.5,3 C7.5,2.72385763 7.72385763,2.5 8,2.5 C8.27614237,2.5 8.5,2.72385763 8.5,3 L8.5,7.5 Z"/></g></svg>