<svg xmlns="http://www.w3.org/2000/svg" xmlns:xlink="http://www.w3.org/1999/xlink" width="41" height="38" version="1.1" viewBox="0 0 41 38"><title>Slice 1</title><desc>Created with Sketch.</desc><g id="Page-1" fill="none" fill-rule="evenodd" stroke="none" stroke-width="1"><g id="grist" transform="translate(0.664062, 0.917969)"><g id="g10" transform="translate(0.022193, 0.074918)"><g id="g4348"><g id="g12" fill="#2CB0AF" transform="translate(27.448160, 0.168619)"><path id="path14" d="M10.8624745,0.0985917347 L5.01558743,0.0985917347 C2.31763491,0.0985917347 0.12730186,2.28892009 0.12730186,4.98684183 L0.12730186,9.85788972 L6.02023995,9.85788972 C8.69278503,9.85788972 10.8624745,7.68810131 10.8624745,5.01559775 L10.8624745,0.0985917347 Z"/></g><g id="g16" fill="#2CB0AF" transform="translate(19.325608, 5.175230) scale(-1, 1) translate(-19.325608, -5.175230) translate(13.767731, 0.168619)"><path id="path18" d="M10.8624745,0.0985917347 L5.01558743,0.0985917347 C2.31763491,0.0985917347 0.12730186,2.28892009 0.12730186,4.98684183 L0.12730186,9.85788972 L6.02023995,9.85788972 C8.69278503,9.85788972 10.8624745,7.68810131 10.8624745,5.01559775 L10.8624745,0.0985917347 Z"/></g><g id="g20" fill="#F9AE41" transform="translate(5.771053, 17.753945) scale(-1, 1) translate(-5.771053, -17.753945) translate(0.213175, 12.747333)"><path id="path22" d="M10.8624745,0.0985917347 L5.01558743,0.0985917347 C2.31763491,0.0985917347 0.12730186,2.28892009 0.12730186,4.98684183 L0.12730186,9.85788972 L6.02023995,9.85788972 C8.69278503,9.85788972 10.8624745,7.68810131 10.8624745,5.01559775 L10.8624745,0.0985917347 Z"/></g><g id="g24" fill="#F9AE41" transform="translate(5.771053, 30.332572) scale(-1, 1) translate(-5.771053, -30.332572) translate(0.213175, 25.325961)"><path id="path26" d="M10.8624745,0.0985917347 L5.01558743,0.0985917347 C2.31763491,0.0985917347 0.12730186,2.28892009 0.12730186,4.98684183 L0.12730186,9.85788972 L6.02023995,9.85788972 C8.69278503,9.85788972 10.8624745,7.68810131 10.8624745,5.01559775 L10.8624745,0.0985917347 Z"/></g><g id="g28" fill="#D2D2D2" transform="translate(19.325608, 17.753945) scale(-1, 1) translate(-19.325608, -17.753945) translate(13.767731, 12.747333)"><path id="path30" d="M10.8624745,0.0985917347 L5.01558743,0.0985917347 C2.31763491,0.0985917347 0.12730186,2.28892009 0.12730186,4.98684183 L0.12730186,9.85788972 L6.02023995,9.85788972 C8.69278503,9.85788972 10.8624745,7.68810131 10.8624745,5.01559775 L10.8624745,0.0985917347 Z"/></g><g id="g32" fill="#D2D2D2" transform="translate(27.448160, 12.747333)"><path id="path34" d="M10.8624745,0.0985917347 L5.01558743,0.0985917347 C2.31763491,0.0985917347 0.12730186,2.28892009 0.12730186,4.98684183 L0.12730186,9.85788972 L6.02023995,9.85788972 C8.69278503,9.85788972 10.8624745,7.68810131 10.8624745,5.01559775 L10.8624745,0.0985917347 Z"/></g><g id="g36" fill="#D2D2D2" transform="translate(19.325608, 30.332572) scale(-1, 1) translate(-19.325608, -30.332572) translate(13.767731, 25.325961)"><path id="path38" d="M10.8624745,0.0985917347 L5.01558743,0.0985917347 C2.31763491,0.0985917347 0.12730186,2.28892009 0.12730186,4.98684183 L0.12730186,9.85788972 L6.02023995,9.85788972 C8.69278503,9.85788972 10.8624745,7.68810131 10.8624745,5.01559775 L10.8624745,0.0985917347 Z"/></g><g id="g40" fill="#D2D2D2" transform="translate(27.448160, 25.325961)"><path id="path42" d="M10.8624745,0.0985917347 L5.01558743,0.0985917347 C2.31763491,0.0985917347 0.12730186,2.28892009 0.12730186,4.98684183 L0.12730186,9.85788972 L6.02023995,9.85788972 C8.69278503,9.85788972 10.8624745,7.68810131 10.8624745,5.01559775 L10.8624745,0.0985917347 Z"/></g></g></g></g></g></svg>