<svg xmlns="http://www.w3.org/2000/svg" xmlns:xlink="http://www.w3.org/1999/xlink" width="16" height="16" version="1.1" viewBox="0 0 16 16"><title>Icons / Fields / FieldText</title><desc>Created with Sketch.</desc><g id="Icons-/-Fields-/-FieldText" fill="none" fill-rule="evenodd" stroke="none" stroke-width="1"><path id="Combined-Shape" fill="#000" fill-rule="nonzero" d="M7.5,13 L7.5,3 L3,3 L3,4.5 C3,4.77614237 2.77614237,5 2.5,5 C2.22385763,5 2,4.77614237 2,4.5 L2,2.5 C2,2.22385763 2.22385763,2 2.5,2 L13.5,2 C13.7761424,2 14,2.22385763 14,2.5 L14,4.5 C14,4.77614237 13.7761424,5 13.5,5 C13.2238576,5 13,4.77614237 13,4.5 L13,3 L8.5,3 L8.5,13 L10.5,13 C10.7761424,13 11,13.2238576 11,13.5 C11,13.7761424 10.7761424,14 10.5,14 L5.5,14 C5.22385763,14 5,13.7761424 5,13.5 C5,13.2238576 5.22385763,13 5.5,13 L7.5,13 Z"/></g></svg>